<svg xmlns="http://www.w3.org/2000/svg" xmlns:xlink="http://www.w3.org/1999/xlink" contentStyleType="text/css" data-diagram-type="ACTIVITY" height="1886px" preserveAspectRatio="none" style="width:3125px;height:1886px;background:#FFFFFF;" version="1.1" viewBox="0 0 3125 1886" width="3125px" zoomAndPan="magnify"><title>Flujo detallado de total_management(chrome_driver_load, folder_root, ACTIONS, process_closed_credit_accounts, export_pickle)</title><defs/><g><g class="title" data-source-line="1"><text fill="#000000" font-family="sans-serif" font-size="14" font-weight="bold" lengthAdjust="spacing" textLength="922.0449" x="1100.3633" y="33.5352">Flujo detallado de total_management(chrome_driver_load, folder_root, ACTIONS, process_closed_credit_accounts, export_pickle)</text></g><ellipse cx="1549.3857" cy="57.4883" fill="#222222" rx="10" ry="10" style="stroke:#222222;stroke-width:1;"/><rect fill="#F1F1F1" height="34.1328" rx="12.5" ry="12.5" style="stroke:#181818;stroke-width:0.5;" width="425.8613" x="1336.4551" y="87.4883"/><text fill="#000000" font-family="sans-serif" font-size="12" lengthAdjust="spacing" textLength="405.8613" x="1346.4551" y="109.0898">'working_folder' = join(folder_root, "Implementaci&#243;n", "Info Bancaria")</text><rect fill="#F1F1F1" height="34.1328" rx="12.5" ry="12.5" style="stroke:#181818;stroke-width:0.5;" width="287.9141" x="1405.4287" y="190.0986"/><text fill="#000000" font-family="sans-serif" font-size="12" lengthAdjust="spacing" textLength="267.9141" x="1415.4287" y="211.7002">create_directory_if_not_exists(working_folder)</text><polygon fill="#F1F1F1" points="1487.1052,141.6211,1611.6663,141.6211,1623.6663,153.6211,1611.6663,165.6211,1487.1052,165.6211,1475.1052,153.6211,1487.1052,141.6211" style="stroke:#181818;stroke-width:0.5;"/><text fill="#000000" font-family="sans-serif" font-size="11" lengthAdjust="spacing" textLength="13.5835" x="1553.3857" y="176.2559">no</text><text fill="#000000" font-family="sans-serif" font-size="11" lengthAdjust="spacing" textLength="124.561" x="1487.1052" y="157.7783">&#191;Existe working_folder?</text><text fill="#000000" font-family="sans-serif" font-size="11" lengthAdjust="spacing" textLength="8.7871" x="1623.6663" y="151.3008">s&#237;</text><polygon fill="#F1F1F1" points="1549.3857,244.2314,1561.3857,256.2314,1549.3857,268.2314,1537.3857,256.2314,1549.3857,244.2314" style="stroke:#181818;stroke-width:0.5;"/><rect fill="#F1F1F1" height="34.1328" rx="12.5" ry="12.5" style="stroke:#181818;stroke-width:0.5;" width="282.125" x="1408.3232" y="288.2314"/><text fill="#000000" font-family="sans-serif" font-size="12" lengthAdjust="spacing" textLength="262.125" x="1418.3232" y="309.833">data_access = yaml_creation(working_folder)</text><rect fill="#F1F1F1" height="34.1328" rx="12.5" ry="12.5" style="stroke:#181818;stroke-width:0.5;" width="232.2441" x="1433.2637" y="342.3643"/><text fill="#000000" font-family="sans-serif" font-size="12" lengthAdjust="spacing" textLength="212.2441" x="1443.2637" y="363.9658">downloads = "Temporal Downloads"</text><rect fill="#F1F1F1" height="34.1328" rx="12.5" ry="12.5" style="stroke:#181818;stroke-width:0.5;" width="321.5996" x="1388.5859" y="396.4971"/><text fill="#000000" font-family="sans-serif" font-size="12" lengthAdjust="spacing" textLength="301.5996" x="1398.5859" y="418.0986">download_folder = join(working_folder, downloads)</text><rect fill="#F1F1F1" height="34.1328" rx="12.5" ry="12.5" style="stroke:#181818;stroke-width:0.5;" width="332.8965" x="1382.9375" y="450.6299"/><text fill="#000000" font-family="sans-serif" font-size="12" lengthAdjust="spacing" textLength="312.8965" x="1392.9375" y="472.2314">path_TC_closed   = join(working_folder, "TC al corte")</text><rect fill="#F1F1F1" height="34.1328" rx="12.5" ry="12.5" style="stroke:#181818;stroke-width:0.5;" width="356.123" x="1371.3242" y="504.7627"/><text fill="#000000" font-family="sans-serif" font-size="12" lengthAdjust="spacing" textLength="336.123" x="1381.3242" y="526.3643">path_DEBIT_closed= join(working_folder, "D&#233;bito al mes")</text><rect fill="#F1F1F1" height="34.1328" rx="12.5" ry="12.5" style="stroke:#181818;stroke-width:0.5;" width="516.8398" x="1290.9658" y="558.8955"/><text fill="#000000" font-family="sans-serif" font-size="12" lengthAdjust="spacing" textLength="496.8398" x="1300.9658" y="580.4971">create_directory_if_not_exists([working_folder, download_folder, path_DEBIT_closed])</text><rect fill="#F1F1F1" height="34.1328" rx="12.5" ry="12.5" style="stroke:#181818;stroke-width:0.5;" width="285.6758" x="1406.5479" y="613.0283"/><text fill="#000000" font-family="sans-serif" font-size="12" lengthAdjust="spacing" textLength="265.6758" x="1416.5479" y="634.6299">add_to_gitignore(folder_root, working_folder)</text><rect fill="#F1F1F1" height="34.1328" rx="12.5" ry="12.5" style="stroke:#181818;stroke-width:0.5;" width="354.6406" x="1372.0654" y="667.1611"/><text fill="#000000" font-family="sans-serif" font-size="12" lengthAdjust="spacing" textLength="334.6406" x="1382.0654" y="688.7627">headers_credit = data_access["BANORTE_credit_headers"]</text><rect fill="#F1F1F1" height="34.1328" rx="12.5" ry="12.5" style="stroke:#181818;stroke-width:0.5;" width="351.4297" x="1373.6709" y="721.2939"/><text fill="#000000" font-family="sans-serif" font-size="12" lengthAdjust="spacing" textLength="331.4297" x="1383.6709" y="742.8955">headers_debit  = data_access["BANORTE_debit_headers"]</text><path d="M1885.1719,765.4268 L1885.1719,789.3926 L1865.1719,793.3926 L1885.1719,797.3926 L1885.1719,821.3584 A0,0 0 0 0 1885.1719,821.3584 L2196.1582,821.3584 A0,0 0 0 0 2196.1582,821.3584 L2196.1582,775.4268 L2186.1582,765.4268 L1885.1719,765.4268 A0,0 0 0 0 1885.1719,765.4268" fill="#FEFFDD" style="stroke:#181818;stroke-width:0.5;"/><path d="M2186.1582,765.4268 L2186.1582,775.4268 L2196.1582,775.4268 L2186.1582,765.4268" fill="#FEFFDD" style="stroke:#181818;stroke-width:0.5;"/><text fill="#000000" font-family="sans-serif" font-size="13" lengthAdjust="spacing" textLength="289.9863" x="1891.1719" y="782.9951">Pre-carga de credenciales dinamiza ACTIONS:</text><text fill="#000000" font-family="sans-serif" font-size="13" lengthAdjust="spacing" textLength="158.3677" x="1891.1719" y="798.3057">- user -&gt; BANORTE_user</text><text fill="#000000" font-family="sans-serif" font-size="13" lengthAdjust="spacing" textLength="224.0913" x="1891.1719" y="813.6162">- password -&gt; BANORTE_password</text><rect fill="#F1F1F1" height="34.1328" rx="12.5" ry="12.5" style="stroke:#181818;stroke-width:0.5;" width="631.5723" x="1233.5996" y="776.3262"/><text fill="#000000" font-family="sans-serif" font-size="12" lengthAdjust="spacing" textLength="611.5723" x="1243.5996" y="797.9277">credit_closed_by_month(path_TC_closed, process_closed_credit_accounts, export_pickle, headers_credit)</text><rect fill="#F1F1F1" height="34.1328" rx="12.5" ry="12.5" style="stroke:#181818;stroke-width:0.5;" width="376.9766" x="1360.8975" y="841.3584"/><text fill="#000000" font-family="sans-serif" font-size="12" lengthAdjust="spacing" textLength="356.9766" x="1370.8975" y="862.96">ACTIONS[".../inicio"][0].value = data_access["BANORTE_user"]</text><rect fill="#F1F1F1" height="34.1328" rx="12.5" ry="12.5" style="stroke:#181818;stroke-width:0.5;" width="407.3105" x="1345.7305" y="895.4912"/><text fill="#000000" font-family="sans-serif" font-size="12" lengthAdjust="spacing" textLength="387.3105" x="1355.7305" y="917.0928">ACTIONS[".../inicio"][2].value = data_access["BANORTE_password"]</text><rect fill="#F1F1F1" height="34.1328" rx="12.5" ry="12.5" style="stroke:#181818;stroke-width:0.5;" width="397.5195" x="1350.626" y="949.624"/><text fill="#000000" font-family="sans-serif" font-size="12" lengthAdjust="spacing" textLength="377.5195" x="1360.626" y="971.2256">print("Cargando el usuario y contrase&#241;a registrados en el YAML")</text><rect fill="#F1F1F1" height="34.1328" rx="12.5" ry="12.5" style="stroke:#181818;stroke-width:0.5;" width="290.2344" x="1404.2686" y="1003.7568"/><text fill="#000000" font-family="sans-serif" font-size="12" lengthAdjust="spacing" textLength="270.2344" x="1414.2686" y="1025.3584">driver = chrome_driver_load(download_folder)</text><rect fill="#F1F1F1" height="34.1328" rx="12.5" ry="12.5" style="stroke:#181818;stroke-width:0.5;" width="97.4609" x="1500.6553" y="1057.8896"/><text fill="#000000" font-family="sans-serif" font-size="12" lengthAdjust="spacing" textLength="77.4609" x="1510.6553" y="1079.4912">timeout = 20</text><rect fill="#F1F1F1" height="34.1328" rx="12.5" ry="12.5" style="stroke:#181818;stroke-width:0.5;" width="215.5273" x="1441.6221" y="1156.0225"/><text fill="#000000" font-family="sans-serif" font-size="12" lengthAdjust="spacing" textLength="195.5273" x="1451.6221" y="1177.624">choice = input(men&#250; 1..5, 0 salir)</text><polygon fill="#F1F1F1" points="190.8889,1210.1553,269.3123,1210.1553,281.3123,1222.1553,269.3123,1234.1553,190.8889,1234.1553,178.8889,1222.1553,190.8889,1210.1553" style="stroke:#181818;stroke-width:0.5;"/><text fill="#000000" font-family="sans-serif" font-size="11" lengthAdjust="spacing" textLength="8.7871" x="234.1006" y="1244.79">s&#237;</text><text fill="#000000" font-family="sans-serif" font-size="11" lengthAdjust="spacing" textLength="78.4233" x="190.8889" y="1226.3125">choice == "1"?</text><rect fill="#F1F1F1" height="34.1328" rx="12.5" ry="12.5" style="stroke:#181818;stroke-width:0.5;" width="438.2012" x="11" y="1266.29"/><text fill="#000000" font-family="sans-serif" font-size="12" lengthAdjust="spacing" textLength="418.2012" x="21" y="1287.8916">site_operation(ACTIONS, driver, timeout, download_folder, data_access)</text><polygon fill="#F1F1F1" points="594.0129,1210.1553,672.4363,1210.1553,684.4363,1222.1553,672.4363,1234.1553,594.0129,1234.1553,582.0129,1222.1553,594.0129,1210.1553" style="stroke:#181818;stroke-width:0.5;"/><text fill="#000000" font-family="sans-serif" font-size="11" lengthAdjust="spacing" textLength="8.7871" x="637.2246" y="1244.79">s&#237;</text><text fill="#000000" font-family="sans-serif" font-size="11" lengthAdjust="spacing" textLength="78.4233" x="594.0129" y="1226.3125">choice == "2"?</text><rect fill="#F1F1F1" height="34.1328" rx="12.5" ry="12.5" style="stroke:#181818;stroke-width:0.5;" width="348.0469" x="459.2012" y="1266.29"/><text fill="#000000" font-family="sans-serif" font-size="12" lengthAdjust="spacing" textLength="328.0469" x="469.2012" y="1287.8916">print("&#128230; Procesando archivos CSV despu&#233;s del corte...")</text><rect fill="#F1F1F1" height="34.1328" rx="12.5" ry="12.5" style="stroke:#181818;stroke-width:0.5;" width="335.2578" x="465.5957" y="1320.4229"/><text fill="#000000" font-family="sans-serif" font-size="12" lengthAdjust="spacing" textLength="315.2578" x="475.5957" y="1342.0244">processing_csv_post_cut(working_folder, data_access)</text><polygon fill="#F1F1F1" points="1190.2708,1210.1553,1268.6941,1210.1553,1280.6941,1222.1553,1268.6941,1234.1553,1190.2708,1234.1553,1178.2708,1222.1553,1190.2708,1210.1553" style="stroke:#181818;stroke-width:0.5;"/><text fill="#000000" font-family="sans-serif" font-size="11" lengthAdjust="spacing" textLength="8.7871" x="1233.4824" y="1244.79">s&#237;</text><text fill="#000000" font-family="sans-serif" font-size="11" lengthAdjust="spacing" textLength="78.4233" x="1190.2708" y="1226.3125">choice == "3"?</text><rect fill="#F1F1F1" height="34.1328" rx="12.5" ry="12.5" style="stroke:#181818;stroke-width:0.5;" width="423.5059" x="1017.7295" y="1266.29"/><text fill="#000000" font-family="sans-serif" font-size="12" lengthAdjust="spacing" textLength="403.5059" x="1027.7295" y="1287.8916">print("Confirmando si hay un archivo de cr&#233;dito para el &#250;ltimo corte")</text><rect fill="#F1F1F1" height="34.1328" rx="12.5" ry="12.5" style="stroke:#181818;stroke-width:0.5;" width="369.2832" x="1044.8408" y="1320.4229"/><text fill="#000000" font-family="sans-serif" font-size="12" lengthAdjust="spacing" textLength="349.2832" x="1054.8408" y="1342.0244">fecha_corte, estatus = fechas_corte_tarjeta(path_TC_closed)</text><rect fill="#F1F1F1" height="34.1328" rx="12.5" ry="12.5" style="stroke:#181818;stroke-width:0.5;" width="138.7051" x="1160.1299" y="1374.5557"/><text fill="#000000" font-family="sans-serif" font-size="12" lengthAdjust="spacing" textLength="118.7051" x="1170.1299" y="1396.1572">today = date.today()</text><polygon fill="#F1F1F1" points="1169.4578,1428.6885,1289.5071,1428.6885,1301.5071,1440.6885,1289.5071,1452.6885,1169.4578,1452.6885,1157.4578,1440.6885,1169.4578,1428.6885" style="stroke:#181818;stroke-width:0.5;"/><text fill="#000000" font-family="sans-serif" font-size="11" lengthAdjust="spacing" textLength="120.0493" x="1169.4578" y="1444.8457">today &lt;= fecha_corte?</text><text fill="#000000" font-family="sans-serif" font-size="11" lengthAdjust="spacing" textLength="8.7871" x="1148.6707" y="1438.3682">s&#237;</text><text fill="#000000" font-family="sans-serif" font-size="11" lengthAdjust="spacing" textLength="13.5835" x="1301.5071" y="1438.3682">no</text><rect fill="#F1F1F1" height="34.1328" rx="12.5" ry="12.5" style="stroke:#181818;stroke-width:0.5;" width="231.75" x="842.1191" y="1462.6885"/><text fill="#000000" font-family="sans-serif" font-size="12" lengthAdjust="spacing" textLength="211.75" x="852.1191" y="1484.29">print("&#128176; Esperando fecha de corte")</text><rect fill="#F1F1F1" height="34.1328" rx="12.5" ry="12.5" style="stroke:#181818;stroke-width:0.5;" width="383.6152" x="1309.1631" y="1462.6885"/><text fill="#000000" font-family="sans-serif" font-size="12" lengthAdjust="spacing" textLength="363.6152" x="1319.1631" y="1484.29">print("Falta archivo al &#250;ltimo corte -&gt; abrir ventana descarga")</text><rect fill="#F1F1F1" height="34.1328" rx="12.5" ry="12.5" style="stroke:#181818;stroke-width:0.5;" width="432.5117" x="1284.7148" y="1529.7988"/><text fill="#000000" font-family="sans-serif" font-size="12" lengthAdjust="spacing" textLength="412.5117" x="1294.7148" y="1551.4004">site_operation(ACTIONS, driver, timeout, path_TC_closed, data_access)</text><rect fill="#F1F1F1" height="34.1328" rx="12.5" ry="12.5" style="stroke:#181818;stroke-width:0.5;" width="287.7148" x="1357.1133" y="1583.9316"/><text fill="#000000" font-family="sans-serif" font-size="12" lengthAdjust="spacing" textLength="267.7148" x="1367.1133" y="1605.5332">input("Presiona enter al terminar la descarga")</text><rect fill="#F1F1F1" height="34.1328" rx="12.5" ry="12.5" style="stroke:#181818;stroke-width:0.5;" width="814.2031" x="1093.8691" y="1638.0645"/><text fill="#000000" font-family="sans-serif" font-size="12" lengthAdjust="spacing" textLength="794.2031" x="1103.8691" y="1659.666">credit_closed_by_month(path_TC_closed, process_closed_credit_accounts, export_pickle, headers_credit, check_only=false, debit=false)</text><polygon fill="#F1F1F1" points="1229.4824,1678.1973,1241.4824,1690.1973,1229.4824,1702.1973,1217.4824,1690.1973,1229.4824,1678.1973" style="stroke:#181818;stroke-width:0.5;"/><rect fill="#F1F1F1" height="34.1328" rx="12.5" ry="12.5" style="stroke:#181818;stroke-width:0.5;" width="307.1738" x="1075.8955" y="1722.1973"/><text fill="#000000" font-family="sans-serif" font-size="12" lengthAdjust="spacing" textLength="287.1738" x="1085.8955" y="1743.7988">print("Confirmando d&#233;bito mes cerrado anterior")</text><rect fill="#F1F1F1" height="34.1328" rx="12.5" ry="12.5" style="stroke:#181818;stroke-width:0.5;" width="824.4688" x="817.248" y="1776.3301"/><text fill="#000000" font-family="sans-serif" font-size="12" lengthAdjust="spacing" textLength="804.4688" x="827.248" y="1797.9316">credit_closed_by_month(path_DEBIT_closed, process_closed_credit_accounts, export_pickle, headers_debit, check_only=false, debit=true)</text><polygon fill="#F1F1F1" points="2071.385,1210.1553,2149.8083,1210.1553,2161.8083,1222.1553,2149.8083,1234.1553,2071.385,1234.1553,2059.385,1222.1553,2071.385,1210.1553" style="stroke:#181818;stroke-width:0.5;"/><text fill="#000000" font-family="sans-serif" font-size="11" lengthAdjust="spacing" textLength="8.7871" x="2114.5967" y="1244.79">s&#237;</text><text fill="#000000" font-family="sans-serif" font-size="11" lengthAdjust="spacing" textLength="78.4233" x="2071.385" y="1226.3125">choice == "4"?</text><rect fill="#F1F1F1" height="34.1328" rx="12.5" ry="12.5" style="stroke:#181818;stroke-width:0.5;" width="286.7168" x="1967.2383" y="1266.29"/><text fill="#000000" font-family="sans-serif" font-size="12" lengthAdjust="spacing" textLength="266.7168" x="1977.2383" y="1287.8916">print("&#128176; Cargando gastos posterior al corte")</text><rect fill="#F1F1F1" height="34.1328" rx="12.5" ry="12.5" style="stroke:#181818;stroke-width:0.5;" width="345.0488" x="1938.0723" y="1320.4229"/><text fill="#000000" font-family="sans-serif" font-size="12" lengthAdjust="spacing" textLength="325.0488" x="1948.0723" y="1342.0244">credit_current_month(working_folder, check_only=true)</text><polygon fill="#F1F1F1" points="2397.2678,1210.1553,2475.6912,1210.1553,2487.6912,1222.1553,2475.6912,1234.1553,2397.2678,1234.1553,2385.2678,1222.1553,2397.2678,1210.1553" style="stroke:#181818;stroke-width:0.5;"/><text fill="#000000" font-family="sans-serif" font-size="11" lengthAdjust="spacing" textLength="8.7871" x="2440.4795" y="1244.79">s&#237;</text><text fill="#000000" font-family="sans-serif" font-size="11" lengthAdjust="spacing" textLength="78.4233" x="2397.2678" y="1226.3125">choice == "5"?</text><rect fill="#F1F1F1" height="34.1328" rx="12.5" ry="12.5" style="stroke:#181818;stroke-width:0.5;" width="286.7168" x="2293.1211" y="1266.29"/><text fill="#000000" font-family="sans-serif" font-size="12" lengthAdjust="spacing" textLength="266.7168" x="2303.1211" y="1287.8916">print("&#128176; Cargando gastos posterior al corte")</text><rect fill="#F1F1F1" height="34.1328" rx="12.5" ry="12.5" style="stroke:#181818;stroke-width:0.5;" width="263.1875" x="2304.8857" y="1320.4229"/><text fill="#000000" font-family="sans-serif" font-size="12" lengthAdjust="spacing" textLength="243.1875" x="2314.8857" y="1342.0244">upload_data(working_folder, data_access)</text><polygon fill="#F1F1F1" points="2631.1047,1210.1553,2709.5281,1210.1553,2721.5281,1222.1553,2709.5281,1234.1553,2631.1047,1234.1553,2619.1047,1222.1553,2631.1047,1210.1553" style="stroke:#181818;stroke-width:0.5;"/><text fill="#000000" font-family="sans-serif" font-size="11" lengthAdjust="spacing" textLength="8.7871" x="2674.3164" y="1244.79">s&#237;</text><text fill="#000000" font-family="sans-serif" font-size="11" lengthAdjust="spacing" textLength="78.4233" x="2631.1047" y="1226.3125">choice == "0"?</text><text fill="#000000" font-family="sans-serif" font-size="11" lengthAdjust="spacing" textLength="41.1318" x="2721.5281" y="1219.835">inv&#225;lida</text><rect fill="#F1F1F1" height="34.1328" rx="12.5" ry="12.5" style="stroke:#181818;stroke-width:0.5;" width="160.957" x="2589.8379" y="1266.29"/><text fill="#000000" font-family="sans-serif" font-size="12" lengthAdjust="spacing" textLength="140.957" x="2599.8379" y="1287.8916">print("&#128075; &#161;Hasta luego!")</text><ellipse cx="2670.3164" cy="1331.4229" fill="none" rx="11" ry="11" style="stroke:#222222;stroke-width:1;"/><ellipse cx="2670.3164" cy="1331.4229" fill="#222222" rx="6" ry="6" style="stroke:#222222;stroke-width:1;"/><rect fill="#F1F1F1" height="34.1328" rx="12.5" ry="12.5" style="stroke:#181818;stroke-width:0.5;" width="316.9766" x="2770.7949" y="1524.3213"/><text fill="#000000" font-family="sans-serif" font-size="12" lengthAdjust="spacing" textLength="296.9766" x="2780.7949" y="1545.9229">print("&#9888;&#65039; Opci&#243;n no v&#225;lida. Elige 1, 2, 3, 4, 5 o 0")</text><polygon fill="#F1F1F1" points="1549.3857,1112.0225,1561.3857,1124.0225,1549.3857,1136.0225,1537.3857,1124.0225,1549.3857,1112.0225" style="stroke:#181818;stroke-width:0.5;"/><polygon fill="#F1F1F1" points="1515.1262,1850.4629,1583.6453,1850.4629,1595.6453,1862.4629,1583.6453,1874.4629,1515.1262,1874.4629,1503.1262,1862.4629,1515.1262,1850.4629" style="stroke:#181818;stroke-width:0.5;"/><text fill="#000000" font-family="sans-serif" font-size="11" lengthAdjust="spacing" textLength="68.519" x="1515.1262" y="1866.6201">choice != "0"</text><line style="stroke:#181818;stroke-width:1;" x1="1549.3857" x2="1549.3857" y1="67.4883" y2="87.4883"/><polygon fill="#181818" points="1545.3857,77.4883,1549.3857,87.4883,1553.3857,77.4883,1549.3857,81.4883" style="stroke:#181818;stroke-width:1;"/><line style="stroke:#181818;stroke-width:1;" x1="1549.3857" x2="1549.3857" y1="165.6211" y2="190.0986"/><polygon fill="#181818" points="1545.3857,180.0986,1549.3857,190.0986,1553.3857,180.0986,1549.3857,184.0986" style="stroke:#181818;stroke-width:1;"/><line style="stroke:#181818;stroke-width:1;" x1="1623.6663" x2="1703.3428" y1="153.6211" y2="153.6211"/><polygon fill="#181818" points="1699.3428,197.165,1703.3428,207.165,1707.3428,197.165,1703.3428,201.165" style="stroke:#181818;stroke-width:1;"/><line style="stroke:#181818;stroke-width:1;" x1="1703.3428" x2="1703.3428" y1="153.6211" y2="256.2314"/><line style="stroke:#181818;stroke-width:1;" x1="1703.3428" x2="1561.3857" y1="256.2314" y2="256.2314"/><polygon fill="#181818" points="1571.3857,252.2314,1561.3857,256.2314,1571.3857,260.2314,1567.3857,256.2314" style="stroke:#181818;stroke-width:1;"/><line style="stroke:#181818;stroke-width:1;" x1="1549.3857" x2="1549.3857" y1="224.2314" y2="244.2314"/><polygon fill="#181818" points="1545.3857,234.2314,1549.3857,244.2314,1553.3857,234.2314,1549.3857,238.2314" style="stroke:#181818;stroke-width:1;"/><line style="stroke:#181818;stroke-width:1;" x1="1549.3857" x2="1549.3857" y1="121.6211" y2="141.6211"/><polygon fill="#181818" points="1545.3857,131.6211,1549.3857,141.6211,1553.3857,131.6211,1549.3857,135.6211" style="stroke:#181818;stroke-width:1;"/><line style="stroke:#181818;stroke-width:1;" x1="1549.3857" x2="1549.3857" y1="268.2314" y2="288.2314"/><polygon fill="#181818" points="1545.3857,278.2314,1549.3857,288.2314,1553.3857,278.2314,1549.3857,282.2314" style="stroke:#181818;stroke-width:1;"/><line style="stroke:#181818;stroke-width:1;" x1="1549.3857" x2="1549.3857" y1="322.3643" y2="342.3643"/><polygon fill="#181818" points="1545.3857,332.3643,1549.3857,342.3643,1553.3857,332.3643,1549.3857,336.3643" style="stroke:#181818;stroke-width:1;"/><line style="stroke:#181818;stroke-width:1;" x1="1549.3857" x2="1549.3857" y1="376.4971" y2="396.4971"/><polygon fill="#181818" points="1545.3857,386.4971,1549.3857,396.4971,1553.3857,386.4971,1549.3857,390.4971" style="stroke:#181818;stroke-width:1;"/><line style="stroke:#181818;stroke-width:1;" x1="1549.3857" x2="1549.3857" y1="430.6299" y2="450.6299"/><polygon fill="#181818" points="1545.3857,440.6299,1549.3857,450.6299,1553.3857,440.6299,1549.3857,444.6299" style="stroke:#181818;stroke-width:1;"/><line style="stroke:#181818;stroke-width:1;" x1="1549.3857" x2="1549.3857" y1="484.7627" y2="504.7627"/><polygon fill="#181818" points="1545.3857,494.7627,1549.3857,504.7627,1553.3857,494.7627,1549.3857,498.7627" style="stroke:#181818;stroke-width:1;"/><line style="stroke:#181818;stroke-width:1;" x1="1549.3857" x2="1549.3857" y1="538.8955" y2="558.8955"/><polygon fill="#181818" points="1545.3857,548.8955,1549.3857,558.8955,1553.3857,548.8955,1549.3857,552.8955" style="stroke:#181818;stroke-width:1;"/><line style="stroke:#181818;stroke-width:1;" x1="1549.3857" x2="1549.3857" y1="593.0283" y2="613.0283"/><polygon fill="#181818" points="1545.3857,603.0283,1549.3857,613.0283,1553.3857,603.0283,1549.3857,607.0283" style="stroke:#181818;stroke-width:1;"/><line style="stroke:#181818;stroke-width:1;" x1="1549.3857" x2="1549.3857" y1="647.1611" y2="667.1611"/><polygon fill="#181818" points="1545.3857,657.1611,1549.3857,667.1611,1553.3857,657.1611,1549.3857,661.1611" style="stroke:#181818;stroke-width:1;"/><line style="stroke:#181818;stroke-width:1;" x1="1549.3857" x2="1549.3857" y1="701.2939" y2="721.2939"/><polygon fill="#181818" points="1545.3857,711.2939,1549.3857,721.2939,1553.3857,711.2939,1549.3857,715.2939" style="stroke:#181818;stroke-width:1;"/><line style="stroke:#181818;stroke-width:1;" x1="1549.3857" x2="1549.3857" y1="755.4268" y2="776.3262"/><polygon fill="#181818" points="1545.3857,766.3262,1549.3857,776.3262,1553.3857,766.3262,1549.3857,770.3262" style="stroke:#181818;stroke-width:1;"/><line style="stroke:#181818;stroke-width:1;" x1="1549.3857" x2="1549.3857" y1="810.459" y2="841.3584"/><polygon fill="#181818" points="1545.3857,831.3584,1549.3857,841.3584,1553.3857,831.3584,1549.3857,835.3584" style="stroke:#181818;stroke-width:1;"/><line style="stroke:#181818;stroke-width:1;" x1="1549.3857" x2="1549.3857" y1="875.4912" y2="895.4912"/><polygon fill="#181818" points="1545.3857,885.4912,1549.3857,895.4912,1553.3857,885.4912,1549.3857,889.4912" style="stroke:#181818;stroke-width:1;"/><line style="stroke:#181818;stroke-width:1;" x1="1549.3857" x2="1549.3857" y1="929.624" y2="949.624"/><polygon fill="#181818" points="1545.3857,939.624,1549.3857,949.624,1553.3857,939.624,1549.3857,943.624" style="stroke:#181818;stroke-width:1;"/><line style="stroke:#181818;stroke-width:1;" x1="1549.3857" x2="1549.3857" y1="983.7568" y2="1003.7568"/><polygon fill="#181818" points="1545.3857,993.7568,1549.3857,1003.7568,1553.3857,993.7568,1549.3857,997.7568" style="stroke:#181818;stroke-width:1;"/><line style="stroke:#181818;stroke-width:1;" x1="1549.3857" x2="1549.3857" y1="1037.8896" y2="1057.8896"/><polygon fill="#181818" points="1545.3857,1047.8896,1549.3857,1057.8896,1553.3857,1047.8896,1549.3857,1051.8896" style="stroke:#181818;stroke-width:1;"/><line style="stroke:#181818;stroke-width:1;" x1="633.2246" x2="633.2246" y1="1300.4229" y2="1320.4229"/><polygon fill="#181818" points="629.2246,1310.4229,633.2246,1320.4229,637.2246,1310.4229,633.2246,1314.4229" style="stroke:#181818;stroke-width:1;"/><line style="stroke:#181818;stroke-width:1;" x1="1229.4824" x2="1229.4824" y1="1300.4229" y2="1320.4229"/><polygon fill="#181818" points="1225.4824,1310.4229,1229.4824,1320.4229,1233.4824,1310.4229,1229.4824,1314.4229" style="stroke:#181818;stroke-width:1;"/><line style="stroke:#181818;stroke-width:1;" x1="1229.4824" x2="1229.4824" y1="1354.5557" y2="1374.5557"/><polygon fill="#181818" points="1225.4824,1364.5557,1229.4824,1374.5557,1233.4824,1364.5557,1229.4824,1368.5557" style="stroke:#181818;stroke-width:1;"/><line style="stroke:#181818;stroke-width:1;" x1="1500.9707" x2="1500.9707" y1="1496.8213" y2="1529.7988"/><polygon fill="#181818" points="1496.9707,1519.7988,1500.9707,1529.7988,1504.9707,1519.7988,1500.9707,1523.7988" style="stroke:#181818;stroke-width:1;"/><line style="stroke:#181818;stroke-width:1;" x1="1500.9707" x2="1500.9707" y1="1563.9316" y2="1583.9316"/><polygon fill="#181818" points="1496.9707,1573.9316,1500.9707,1583.9316,1504.9707,1573.9316,1500.9707,1577.9316" style="stroke:#181818;stroke-width:1;"/><line style="stroke:#181818;stroke-width:1;" x1="1500.9707" x2="1500.9707" y1="1618.0645" y2="1638.0645"/><polygon fill="#181818" points="1496.9707,1628.0645,1500.9707,1638.0645,1504.9707,1628.0645,1500.9707,1632.0645" style="stroke:#181818;stroke-width:1;"/><line style="stroke:#181818;stroke-width:1;" x1="1157.4578" x2="957.9941" y1="1440.6885" y2="1440.6885"/><line style="stroke:#181818;stroke-width:1;" x1="957.9941" x2="957.9941" y1="1440.6885" y2="1462.6885"/><polygon fill="#181818" points="953.9941,1452.6885,957.9941,1462.6885,961.9941,1452.6885,957.9941,1456.6885" style="stroke:#181818;stroke-width:1;"/><line style="stroke:#181818;stroke-width:1;" x1="1301.5071" x2="1500.9707" y1="1440.6885" y2="1440.6885"/><line style="stroke:#181818;stroke-width:1;" x1="1500.9707" x2="1500.9707" y1="1440.6885" y2="1462.6885"/><polygon fill="#181818" points="1496.9707,1452.6885,1500.9707,1462.6885,1504.9707,1452.6885,1500.9707,1456.6885" style="stroke:#181818;stroke-width:1;"/><line style="stroke:#181818;stroke-width:1;" x1="957.9941" x2="957.9941" y1="1496.8213" y2="1690.1973"/><line style="stroke:#181818;stroke-width:1;" x1="957.9941" x2="1217.4824" y1="1690.1973" y2="1690.1973"/><polygon fill="#181818" points="1207.4824,1686.1973,1217.4824,1690.1973,1207.4824,1694.1973,1211.4824,1690.1973" style="stroke:#181818;stroke-width:1;"/><line style="stroke:#181818;stroke-width:1;" x1="1500.9707" x2="1500.9707" y1="1672.1973" y2="1690.1973"/><line style="stroke:#181818;stroke-width:1;" x1="1500.9707" x2="1241.4824" y1="1690.1973" y2="1690.1973"/><polygon fill="#181818" points="1251.4824,1686.1973,1241.4824,1690.1973,1251.4824,1694.1973,1247.4824,1690.1973" style="stroke:#181818;stroke-width:1;"/><line style="stroke:#181818;stroke-width:1;" x1="1229.4824" x2="1229.4824" y1="1408.6885" y2="1428.6885"/><polygon fill="#181818" points="1225.4824,1418.6885,1229.4824,1428.6885,1233.4824,1418.6885,1229.4824,1422.6885" style="stroke:#181818;stroke-width:1;"/><line style="stroke:#181818;stroke-width:1;" x1="1229.4824" x2="1229.4824" y1="1702.1973" y2="1722.1973"/><polygon fill="#181818" points="1225.4824,1712.1973,1229.4824,1722.1973,1233.4824,1712.1973,1229.4824,1716.1973" style="stroke:#181818;stroke-width:1;"/><line style="stroke:#181818;stroke-width:1;" x1="1229.4824" x2="1229.4824" y1="1756.3301" y2="1776.3301"/><polygon fill="#181818" points="1225.4824,1766.3301,1229.4824,1776.3301,1233.4824,1766.3301,1229.4824,1770.3301" style="stroke:#181818;stroke-width:1;"/><line style="stroke:#181818;stroke-width:1;" x1="2110.5967" x2="2110.5967" y1="1300.4229" y2="1320.4229"/><polygon fill="#181818" points="2106.5967,1310.4229,2110.5967,1320.4229,2114.5967,1310.4229,2110.5967,1314.4229" style="stroke:#181818;stroke-width:1;"/><line style="stroke:#181818;stroke-width:1;" x1="2436.4795" x2="2436.4795" y1="1300.4229" y2="1320.4229"/><polygon fill="#181818" points="2432.4795,1310.4229,2436.4795,1320.4229,2440.4795,1310.4229,2436.4795,1314.4229" style="stroke:#181818;stroke-width:1;"/><line style="stroke:#181818;stroke-width:1;" x1="2670.3164" x2="2670.3164" y1="1300.4229" y2="1320.4229"/><polygon fill="#181818" points="2666.3164,1310.4229,2670.3164,1320.4229,2674.3164,1310.4229,2670.3164,1314.4229" style="stroke:#181818;stroke-width:1;"/><line style="stroke:#181818;stroke-width:1;" x1="230.1006" x2="230.1006" y1="1234.1553" y2="1266.29"/><polygon fill="#181818" points="226.1006,1256.29,230.1006,1266.29,234.1006,1256.29,230.1006,1260.29" style="stroke:#181818;stroke-width:1;"/><line style="stroke:#181818;stroke-width:1;" x1="230.1006" x2="230.1006" y1="1300.4229" y2="1830.4629"/><polygon fill="#181818" points="226.1006,1820.4629,230.1006,1830.4629,234.1006,1820.4629,230.1006,1824.4629" style="stroke:#181818;stroke-width:1;"/><line style="stroke:#181818;stroke-width:1;" x1="633.2246" x2="633.2246" y1="1234.1553" y2="1266.29"/><polygon fill="#181818" points="629.2246,1256.29,633.2246,1266.29,637.2246,1256.29,633.2246,1260.29" style="stroke:#181818;stroke-width:1;"/><line style="stroke:#181818;stroke-width:1;" x1="633.2246" x2="633.2246" y1="1354.5557" y2="1830.4629"/><polygon fill="#181818" points="629.2246,1820.4629,633.2246,1830.4629,637.2246,1820.4629,633.2246,1824.4629" style="stroke:#181818;stroke-width:1;"/><line style="stroke:#181818;stroke-width:1;" x1="1229.4824" x2="1229.4824" y1="1234.1553" y2="1266.29"/><polygon fill="#181818" points="1225.4824,1256.29,1229.4824,1266.29,1233.4824,1256.29,1229.4824,1260.29" style="stroke:#181818;stroke-width:1;"/><line style="stroke:#181818;stroke-width:1;" x1="1229.4824" x2="1229.4824" y1="1810.4629" y2="1830.4629"/><polygon fill="#181818" points="1225.4824,1820.4629,1229.4824,1830.4629,1233.4824,1820.4629,1229.4824,1824.4629" style="stroke:#181818;stroke-width:1;"/><line style="stroke:#181818;stroke-width:1;" x1="2110.5967" x2="2110.5967" y1="1234.1553" y2="1266.29"/><polygon fill="#181818" points="2106.5967,1256.29,2110.5967,1266.29,2114.5967,1256.29,2110.5967,1260.29" style="stroke:#181818;stroke-width:1;"/><line style="stroke:#181818;stroke-width:1;" x1="2110.5967" x2="2110.5967" y1="1354.5557" y2="1830.4629"/><polygon fill="#181818" points="2106.5967,1820.4629,2110.5967,1830.4629,2114.5967,1820.4629,2110.5967,1824.4629" style="stroke:#181818;stroke-width:1;"/><line style="stroke:#181818;stroke-width:1;" x1="2436.4795" x2="2436.4795" y1="1234.1553" y2="1266.29"/><polygon fill="#181818" points="2432.4795,1256.29,2436.4795,1266.29,2440.4795,1256.29,2436.4795,1260.29" style="stroke:#181818;stroke-width:1;"/><line style="stroke:#181818;stroke-width:1;" x1="2436.4795" x2="2436.4795" y1="1354.5557" y2="1830.4629"/><polygon fill="#181818" points="2432.4795,1820.4629,2436.4795,1830.4629,2440.4795,1820.4629,2436.4795,1824.4629" style="stroke:#181818;stroke-width:1;"/><line style="stroke:#181818;stroke-width:1;" x1="2670.3164" x2="2670.3164" y1="1234.1553" y2="1266.29"/><polygon fill="#181818" points="2666.3164,1256.29,2670.3164,1266.29,2674.3164,1256.29,2670.3164,1260.29" style="stroke:#181818;stroke-width:1;"/><line style="stroke:#181818;stroke-width:1;" x1="281.3123" x2="582.0129" y1="1222.1553" y2="1222.1553"/><polygon fill="#181818" points="572.0129,1218.1553,582.0129,1222.1553,572.0129,1226.1553,576.0129,1222.1553" style="stroke:#181818;stroke-width:1;"/><line style="stroke:#181818;stroke-width:1;" x1="684.4363" x2="1178.2708" y1="1222.1553" y2="1222.1553"/><polygon fill="#181818" points="1168.2708,1218.1553,1178.2708,1222.1553,1168.2708,1226.1553,1172.2708,1222.1553" style="stroke:#181818;stroke-width:1;"/><line style="stroke:#181818;stroke-width:1;" x1="1280.6941" x2="2059.385" y1="1222.1553" y2="1222.1553"/><polygon fill="#181818" points="2049.385,1218.1553,2059.385,1222.1553,2049.385,1226.1553,2053.385,1222.1553" style="stroke:#181818;stroke-width:1;"/><line style="stroke:#181818;stroke-width:1;" x1="2161.8083" x2="2385.2678" y1="1222.1553" y2="1222.1553"/><polygon fill="#181818" points="2375.2678,1218.1553,2385.2678,1222.1553,2375.2678,1226.1553,2379.2678,1222.1553" style="stroke:#181818;stroke-width:1;"/><line style="stroke:#181818;stroke-width:1;" x1="2487.6912" x2="2619.1047" y1="1222.1553" y2="1222.1553"/><polygon fill="#181818" points="2609.1047,1218.1553,2619.1047,1222.1553,2609.1047,1226.1553,2613.1047,1222.1553" style="stroke:#181818;stroke-width:1;"/><line style="stroke:#181818;stroke-width:1;" x1="1549.3857" x2="1549.3857" y1="1190.1553" y2="1195.1553"/><line style="stroke:#181818;stroke-width:1;" x1="1549.3857" x2="230.1006" y1="1195.1553" y2="1195.1553"/><line style="stroke:#181818;stroke-width:1;" x1="230.1006" x2="230.1006" y1="1195.1553" y2="1210.1553"/><polygon fill="#181818" points="226.1006,1200.1553,230.1006,1210.1553,234.1006,1200.1553,230.1006,1204.1553" style="stroke:#181818;stroke-width:1;"/><line style="stroke:#181818;stroke-width:1;" x1="2721.5281" x2="2929.2832" y1="1222.1553" y2="1222.1553"/><line style="stroke:#181818;stroke-width:1;" x1="2929.2832" x2="2929.2832" y1="1222.1553" y2="1524.3213"/><polygon fill="#181818" points="2925.2832,1514.3213,2929.2832,1524.3213,2933.2832,1514.3213,2929.2832,1518.3213" style="stroke:#181818;stroke-width:1;"/><line style="stroke:#181818;stroke-width:1;" x1="2929.2832" x2="2929.2832" y1="1558.4541" y2="1830.4629"/><polygon fill="#181818" points="2925.2832,1820.4629,2929.2832,1830.4629,2933.2832,1820.4629,2929.2832,1824.4629" style="stroke:#181818;stroke-width:1;"/><line style="stroke:#181818;stroke-width:1;" x1="230.1006" x2="2929.2832" y1="1830.4629" y2="1830.4629"/><line style="stroke:#181818;stroke-width:1;" x1="1549.3857" x2="1549.3857" y1="1136.0225" y2="1156.0225"/><polygon fill="#181818" points="1545.3857,1146.0225,1549.3857,1156.0225,1553.3857,1146.0225,1549.3857,1150.0225" style="stroke:#181818;stroke-width:1;"/><line style="stroke:#181818;stroke-width:1;" x1="1595.6453" x2="3099.7715" y1="1862.4629" y2="1862.4629"/><polygon fill="#181818" points="3095.7715,1516.8213,3099.7715,1506.8213,3103.7715,1516.8213,3099.7715,1512.8213" style="stroke:#181818;stroke-width:1;"/><line style="stroke:#181818;stroke-width:1;" x1="3099.7715" x2="3099.7715" y1="1124.0225" y2="1862.4629"/><line style="stroke:#181818;stroke-width:1;" x1="3099.7715" x2="1561.3857" y1="1124.0225" y2="1124.0225"/><polygon fill="#181818" points="1571.3857,1120.0225,1561.3857,1124.0225,1571.3857,1128.0225,1567.3857,1124.0225" style="stroke:#181818;stroke-width:1;"/><line style="stroke:#181818;stroke-width:1;" x1="1549.3857" x2="1549.3857" y1="1830.4629" y2="1850.4629"/><polygon fill="#181818" points="1545.3857,1840.4629,1549.3857,1850.4629,1553.3857,1840.4629,1549.3857,1844.4629" style="stroke:#181818;stroke-width:1;"/><line style="stroke:#181818;stroke-width:1;" x1="1549.3857" x2="1549.3857" y1="1092.0225" y2="1112.0225"/><polygon fill="#181818" points="1545.3857,1102.0225,1549.3857,1112.0225,1553.3857,1102.0225,1549.3857,1106.0225" style="stroke:#181818;stroke-width:1;"/><!--SRC=[lLR1RYD54BtxAshdihOqCKbsSqbOKE9aHQHbis8j91H5eyfCsTD9J_UekyTPymiS473Z0dj1oW49n0Nj1Mdz9_m0V0BLFMF7Tkn4GOYJFJrTrUzLlterJZX9y5nM5neoSYWbPluVECqFIO4AXrIGSkqqDxgW93DYH2QH6hCO1bfc_62qTZ7iz_h79ozVnr0QdPArIIgrfIn93MN29PYckbBEna1lIcrSKehqKbAdrR8EZMljFhxIvbAeOL9dVGpFu48BrLuu93ekIXa0OIeclwd8Bwc1XWDKAHg1KMUl9GRGVl_7qHjX7S5Yreyxu79IqBQJdpijafQWhNId1R3BED4nGM4eTTgC4p58b7O9-JoslPY7Jo6LYK5hDqE7dXmpPiHZB6GICWcjRiVmTdsbVF7yvgXF1PS29HnELwEzcorDsBGEYybYc6NYlBibkZpfzvgQ0wmBYlezuFDIlW2APe67HmV7_IPsNU3XvFfSEEsZ2x8XzfwAdQv3F5kuTVYPJujPbZYT38KJGwKDBIfWHKrpGlvh6wKnzRaxEOqEzb-UVDO_ckgmsHoTxTq4PiJKO5rWU3iV5vZxN8t2pyT9ePNBsuktyC1EY66HXwV6rIGmOfYxrYj36wpm8Vhkz3j8fG8bMSY4ma9yYTCEt6rjG6LPE1iVmPI3V-Rb4gtb0cRphwPhNj3W3sH-JQRJgDljVY2KI8MEpautpxeZb1MjAvG_9DHrTVZsFU5J87M9IoFOTQAUfwpOaqWogOfRNCEOzQkSGKkJNn4C3LbkXdtB0dSsx_jY_zCNGQ2rMV5vjyshlIH6lzs9WdJb1RIzoH0CbQnllknSYzIZ5ggiN9lDP_8EjhhTdHWsmQ8KGONUTAOxkRMteaMhOOEnWfj5bsHgSvZvPOqgXkRu5NqoLovlFEnQIwTjtpwjgT_VFtpt4xmAEWnbH9FcOiIbwht-d9LaosfopHAYnXFumdpbGdpGhc-rr8wIKblMEzE_rTJtONko5bjFgu4mHS1b1UGuXafD4TOodrndtdHADEXlTl9ESfNqZNzniW6bEIPXXJkAXuchlBc6PLkl9pnXBdYwBJLe7UzqnWS7JL8tFBJzVG9u7lNB3vjqTRPbElF5_lONEBB-YZsd41DutC2T7patWSzHEfmnnoMYlblnt0W38p_ubCzfWnVKEH-YhMMBMho-aAkMUSI6OpaNrrqvRY86nJy5Uuq1kGB1_s69CJSofPU9LdByR81SIYRWtRb-g0iSnl8QbMND4EC91YaPRng0dfxGff7JNJpcHzM_fX80hsVYJEM9hEgaftTqEGjlPfL3j8uxtBTiOBOmyUSeLiRmtJO4b_jw3by3QGMYdVy8KLK6l_DYVBZ1RDu1ufkluFtRJ_Xq19uyG_seFf3HbCtNdr2ZoLifCfmF_FFx7__w_MiuASD79az5Q3PruKYA8S5M3DinF8dXQGmxe64pcdqHDdC3hdB1dzPJe8y2qCu_]--></g></svg>