<svg xmlns="http://www.w3.org/2000/svg" xmlns:xlink="http://www.w3.org/1999/xlink" contentStyleType="text/css" data-diagram-type="DESCRIPTION" height="639px" preserveAspectRatio="none" style="width:3331px;height:639px;background:#FFFFFF;" version="1.1" viewBox="0 0 3331 639" width="3331px" zoomAndPan="magnify"><defs/><g><!--cluster total_management.py--><g class="cluster" data-entity="total_management.py" data-source-line="4" data-uid="ent0002" id="cluster_total_management.py"><path d="M13.5,157.52 L187.9551,157.52 A3.75,3.75 0 0 1 190.4551,160.02 L197.4551,180.5346 L1746.5,180.5346 A2.5,2.5 0 0 1 1749,183.0346 L1749,630.39 A2.5,2.5 0 0 1 1746.5,632.89 L13.5,632.89 A2.5,2.5 0 0 1 11,630.39 L11,160.02 A2.5,2.5 0 0 1 13.5,157.52" fill="#FFFFFF" style="stroke:#000000;stroke-width:1;"/><line style="stroke:#000000;stroke-width:1;" x1="11" x2="197.4551" y1="180.5346" y2="180.5346"/><text fill="#000000" font-family="Verdana" font-size="14" font-weight="bold" lengthAdjust="spacing" textLength="173.4551" x="15" y="173.5952">total_management.py</text></g><!--cluster External Modules--><g class="cluster" data-entity="External Modules" data-source-line="21" data-uid="ent0017" id="cluster_External Modules"><path d="M1775.5,427.57 L1911.9883,427.57 A3.75,3.75 0 0 1 1914.4883,430.07 L1921.4883,450.5846 L2611.5,450.5846 A2.5,2.5 0 0 1 2614,453.0846 L2614,514.08 A2.5,2.5 0 0 1 2611.5,516.58 L1775.5,516.58 A2.5,2.5 0 0 1 1773,514.08 L1773,430.07 A2.5,2.5 0 0 1 1775.5,427.57" fill="#FFFFFF" style="stroke:#000000;stroke-width:1;"/><line style="stroke:#000000;stroke-width:1;" x1="1773" x2="1921.4883" y1="450.5846" y2="450.5846"/><text fill="#000000" font-family="Verdana" font-size="14" font-weight="bold" lengthAdjust="spacing" textLength="135.4883" x="1777" y="443.6452">External Modules</text></g><!--cluster Main Entry Point--><g class="cluster" data-entity="Main Entry Point" data-source-line="28" data-uid="ent0022" id="cluster_Main Entry Point"><path d="M1595.5,11 L1726.4443,11 A3.75,3.75 0 0 1 1728.9443,13.5 L1735.9443,34.0146 L1735.5,34.0146 A2.5,2.5 0 0 1 1738,36.5146 L1738,106.02 A2.5,2.5 0 0 1 1735.5,108.52 L1595.5,108.52 A2.5,2.5 0 0 1 1593,106.02 L1593,13.5 A2.5,2.5 0 0 1 1595.5,11" fill="#FFFFFF" style="stroke:#000000;stroke-width:1;"/><line style="stroke:#000000;stroke-width:1;" x1="1593" x2="1735.9443" y1="34.0146" y2="34.0146"/><text fill="#000000" font-family="Verdana" font-size="14" font-weight="bold" lengthAdjust="spacing" textLength="129.9443" x="1597" y="27.0752">Main Entry Point</text></g><!--entity init--><g class="entity" data-entity="init" data-source-line="5" data-uid="ent0003" id="entity_init"><rect fill="#FFFFFF" height="37.0146" rx="2.5" ry="2.5" style="stroke:#000000;stroke-width:1;" width="135.917" x="1597.04" y="193.52"/><text fill="#000000" font-family="Verdana" font-size="14" lengthAdjust="spacing" textLength="115.917" x="1607.04" y="217.5952">initialize_globals</text></g><!--entity main--><g class="entity" data-entity="main" data-source-line="6" data-uid="ent0004" id="entity_main"><rect fill="#FFFFFF" height="37.0146" rx="2.5" ry="2.5" style="stroke:#000000;stroke-width:1;" width="153.3691" x="1151.32" y="193.52"/><text fill="#000000" font-family="Verdana" font-size="14" lengthAdjust="spacing" textLength="133.3691" x="1161.32" y="217.5952">total_management</text></g><!--entity site--><g class="entity" data-entity="site" data-source-line="7" data-uid="ent0005" id="entity_site"><rect fill="#FFFFFF" height="37.0146" rx="2.5" ry="2.5" style="stroke:#000000;stroke-width:1;" width="120.5498" x="567.73" y="307.54"/><text fill="#000000" font-family="Verdana" font-size="14" lengthAdjust="spacing" textLength="100.5498" x="577.73" y="331.6152">site_operation</text></g><!--entity process--><g class="entity" data-entity="process" data-source-line="8" data-uid="ent0006" id="entity_process"><rect fill="#FFFFFF" height="37.0146" rx="2.5" ry="2.5" style="stroke:#000000;stroke-width:1;" width="196.1143" x="316.94" y="374.55"/><text fill="#000000" font-family="Verdana" font-size="14" lengthAdjust="spacing" textLength="176.1143" x="326.94" y="398.6252">processing_csv_post_cut</text></g><!--entity credit--><g class="entity" data-entity="credit" data-source-line="9" data-uid="ent0007" id="entity_credit"><rect fill="#FFFFFF" height="37.0146" rx="2.5" ry="2.5" style="stroke:#000000;stroke-width:1;" width="192.7373" x="1242.63" y="307.54"/><text fill="#000000" font-family="Verdana" font-size="14" lengthAdjust="spacing" textLength="172.7373" x="1252.63" y="331.6152">credit_closed_by_month</text></g><!--entity upload--><g class="entity" data-entity="upload" data-source-line="10" data-uid="ent0008" id="entity_upload"><rect fill="#FFFFFF" height="37.0146" rx="2.5" ry="2.5" style="stroke:#000000;stroke-width:1;" width="107.0078" x="27.5" y="463.57"/><text fill="#000000" font-family="Verdana" font-size="14" lengthAdjust="spacing" textLength="87.0078" x="37.5" y="487.6452">upload_data</text></g><!--entity fechas--><g class="entity" data-entity="fechas" data-source-line="11" data-uid="ent0009" id="entity_fechas"><rect fill="#FFFFFF" height="37.0146" rx="2.5" ry="2.5" style="stroke:#000000;stroke-width:1;" width="165.5234" x="1005.24" y="307.54"/><text fill="#000000" font-family="Verdana" font-size="14" lengthAdjust="spacing" textLength="145.5234" x="1015.24" y="331.6152">fechas_corte_tarjeta</text></g><!--entity msg--><g class="entity" data-entity="msg" data-source-line="12" data-uid="ent0010" id="entity_msg"><rect fill="#FFFFFF" height="37.0146" rx="2.5" ry="2.5" style="stroke:#000000;stroke-width:1;" width="123.8311" x="791.08" y="579.88"/><text fill="#000000" font-family="Verdana" font-size="14" lengthAdjust="spacing" textLength="103.8311" x="801.08" y="603.9552">message_print</text></g><!--entity create_dir--><g class="entity" data-entity="create_dir" data-source-line="13" data-uid="ent0011" id="entity_create_dir"><rect fill="#FFFFFF" height="37.0146" rx="2.5" ry="2.5" style="stroke:#000000;stroke-width:1;" width="234.1289" x="735.94" y="463.57"/><text fill="#000000" font-family="Verdana" font-size="14" lengthAdjust="spacing" textLength="214.1289" x="745.94" y="487.6452">create_directory_if_not_exists</text></g><!--entity yaml--><g class="entity" data-entity="yaml" data-source-line="14" data-uid="ent0012" id="entity_yaml"><rect fill="#FFFFFF" height="37.0146" rx="2.5" ry="2.5" style="stroke:#000000;stroke-width:1;" width="119.7842" x="1441.11" y="374.55"/><text fill="#000000" font-family="Verdana" font-size="14" lengthAdjust="spacing" textLength="99.7842" x="1451.11" y="398.6252">yaml_creation</text></g><!--entity gitignore--><g class="entity" data-entity="gitignore" data-source-line="15" data-uid="ent0013" id="entity_gitignore"><rect fill="#FFFFFF" height="37.0146" rx="2.5" ry="2.5" style="stroke:#000000;stroke-width:1;" width="139.9844" x="1538.01" y="307.54"/><text fill="#000000" font-family="Verdana" font-size="14" lengthAdjust="spacing" textLength="119.9844" x="1548.01" y="331.6152">add_to_gitignore</text></g><!--entity parse_date--><g class="entity" data-entity="parse_date" data-source-line="16" data-uid="ent0014" id="entity_parse_date"><rect fill="#FFFFFF" height="37.0146" rx="2.5" ry="2.5" style="stroke:#000000;stroke-width:1;" width="192.1836" x="1004.91" y="463.57"/><text fill="#000000" font-family="Verdana" font-size="14" lengthAdjust="spacing" textLength="172.1836" x="1014.91" y="487.6452">parse_fecha_ddmmyyyy</text></g><!--entity conceptos--><g class="entity" data-entity="conceptos" data-source-line="17" data-uid="ent0015" id="entity_conceptos"><rect fill="#FFFFFF" height="37.0146" rx="2.5" ry="2.5" style="stroke:#000000;stroke-width:1;" width="171.0537" x="169.47" y="463.57"/><text fill="#000000" font-family="Verdana" font-size="14" lengthAdjust="spacing" textLength="151.0537" x="179.47" y="487.6452">generador_conceptos</text></g><!--entity open_f--><g class="entity" data-entity="open_f" data-source-line="18" data-uid="ent0016" id="entity_open_f"><rect fill="#FFFFFF" height="37.0146" rx="2.5" ry="2.5" style="stroke:#000000;stroke-width:1;" width="103.6172" x="1449.19" y="463.57"/><text fill="#000000" font-family="Verdana" font-size="14" lengthAdjust="spacing" textLength="83.6172" x="1459.19" y="487.6452">open_folder</text></g><!--entity biz--><g class="entity" data-entity="biz" data-source-line="22" data-uid="ent0018" id="entity_biz"><rect fill="#FFFFFF" height="37.0146" rx="2.5" ry="2.5" style="stroke:#000000;stroke-width:1;" width="182.0938" x="2415.95" y="463.57"/><text fill="#000000" font-family="Verdana" font-size="14" lengthAdjust="spacing" textLength="162.0938" x="2425.95" y="487.6452">business_management</text></g><!--entity chrome--><g class="entity" data-entity="chrome" data-source-line="23" data-uid="ent0019" id="entity_chrome"><rect fill="#FFFFFF" height="37.0146" rx="2.5" ry="2.5" style="stroke:#000000;stroke-width:1;" width="160.9912" x="2219.5" y="463.57"/><text fill="#000000" font-family="Verdana" font-size="14" lengthAdjust="spacing" textLength="140.9912" x="2229.5" y="487.6452">chrome_driver_load</text></g><!--entity pcc--><g class="entity" data-entity="pcc" data-source-line="24" data-uid="ent0020" id="entity_pcc"><rect fill="#FFFFFF" height="37.0146" rx="2.5" ry="2.5" style="stroke:#000000;stroke-width:1;" width="245.8184" x="1789.09" y="463.57"/><text fill="#000000" font-family="Verdana" font-size="14" lengthAdjust="spacing" textLength="225.8184" x="1799.09" y="487.6452">process_closed_credit_accounts</text></g><!--entity export--><g class="entity" data-entity="export" data-source-line="25" data-uid="ent0021" id="entity_export"><rect fill="#FFFFFF" height="37.0146" rx="2.5" ry="2.5" style="stroke:#000000;stroke-width:1;" width="114.5615" x="2069.72" y="463.57"/><text fill="#000000" font-family="Verdana" font-size="14" lengthAdjust="spacing" textLength="94.5615" x="2079.72" y="487.6452">export_pickle</text></g><!--entity entry--><g class="entity" data-entity="entry" data-source-line="29" data-uid="ent0023" id="entity_entry"><rect fill="#FFFFFF" height="45.522" rx="2.5" ry="2.5" style="stroke:#000000;stroke-width:1;" width="62.7266" x="1633.64" y="47"/><line style="stroke:#000000;stroke-width:1;" x1="1634.64" x2="1647.64" y1="65.5073" y2="65.5073"/><text fill="#000000" font-family="Verdana" font-size="14" lengthAdjust="spacing" textLength="34.7266" x="1647.64" y="70.5752">main</text><line style="stroke:#000000;stroke-width:1;" x1="1682.3666" x2="1695.3666" y1="65.5073" y2="65.5073"/></g><g class="entity" data-entity="GMN52" data-source-line="80" data-uid="ent0053" id="entity_GMN52"><path d="M2633.49,461.28 L2633.49,502.8786 L2840.5017,502.8786 L2840.5017,471.28 L2830.5017,461.28 L2633.49,461.28" fill="#FFFFFF" style="stroke:#000000;stroke-width:1;"/><path d="M2830.5017,461.28 L2830.5017,471.28 L2840.5017,471.28 L2830.5017,461.28" fill="#FFFFFF" style="stroke:#000000;stroke-width:1;"/><text fill="#000000" font-family="Verdana" font-size="13" lengthAdjust="spacing" textLength="113.7817" x="2639.49" y="479.3498">&#9888;&#65039; NOT CALLED</text><text fill="#000000" font-family="Verdana" font-size="13" lengthAdjust="spacing" textLength="186.0117" x="2639.49" y="495.1491">Function defined but unused</text></g><g class="entity" data-entity="GMN55" data-source-line="81" data-uid="ent0056" id="entity_GMN55"><path d="M2875.49,461.28 L2875.49,502.8786 L3082.5017,502.8786 L3082.5017,471.28 L3072.5017,461.28 L2875.49,461.28" fill="#FFFFFF" style="stroke:#000000;stroke-width:1;"/><path d="M3072.5017,461.28 L3072.5017,471.28 L3082.5017,471.28 L3072.5017,461.28" fill="#FFFFFF" style="stroke:#000000;stroke-width:1;"/><text fill="#000000" font-family="Verdana" font-size="13" lengthAdjust="spacing" textLength="113.7817" x="2881.49" y="479.3498">&#9888;&#65039; NOT CALLED</text><text fill="#000000" font-family="Verdana" font-size="13" lengthAdjust="spacing" textLength="186.0117" x="2881.49" y="495.1491">Function defined but unused</text></g><g class="entity" data-entity="GMN58" data-source-line="82" data-uid="ent0059" id="entity_GMN58"><path d="M3117.49,461.28 L3117.49,502.8786 L3324.5017,502.8786 L3324.5017,471.28 L3314.5017,461.28 L3117.49,461.28" fill="#FFFFFF" style="stroke:#000000;stroke-width:1;"/><path d="M3314.5017,461.28 L3314.5017,471.28 L3324.5017,471.28 L3314.5017,461.28" fill="#FFFFFF" style="stroke:#000000;stroke-width:1;"/><text fill="#000000" font-family="Verdana" font-size="13" lengthAdjust="spacing" textLength="113.7817" x="3123.49" y="479.3498">&#9888;&#65039; NOT CALLED</text><text fill="#000000" font-family="Verdana" font-size="13" lengthAdjust="spacing" textLength="186.0117" x="3123.49" y="495.1491">Function defined but unused</text></g><!--link entry to init--><g class="link" data-entity-1="entry" data-entity-2="init" data-source-line="33" data-uid="lnk24" id="link_entry_init"><path d="M1665,92.99 C1665,120.8 1665,161.86 1665,187.35" fill="none" id="entry-to-init" style="stroke:#000000;stroke-width:1;"/><polygon fill="#000000" points="1665,193.35,1669,184.35,1665,188.35,1661,184.35,1665,193.35" style="stroke:#000000;stroke-width:1;"/><text fill="#000000" font-family="Verdana" font-size="13" lengthAdjust="spacing" textLength="119.4438" x="1666" y="138.5898">initialize_globals()</text></g><!--link entry to main--><g class="link" data-entity-1="entry" data-entity-2="main" data-source-line="34" data-uid="lnk25" id="link_entry_main"><path d="M1633.22,80.96 C1559.67,104.57 1382.6328,161.3961 1289.7728,191.2061" fill="none" id="entry-to-main" style="stroke:#000000;stroke-width:1;"/><polygon fill="#000000" points="1284.06,193.04,1293.8519,194.0977,1288.8207,191.5117,1291.4066,186.4805,1284.06,193.04" style="stroke:#000000;stroke-width:1;"/><text fill="#000000" font-family="Verdana" font-size="13" lengthAdjust="spacing" textLength="135.6494" x="1486.64" y="138.5898">total_management()</text></g><!--link entry to biz--><g class="link" data-entity-1="entry" data-entity-2="biz" data-source-line="35" data-uid="lnk26" id="link_entry_biz"><path d="M1696.48,74.01 C1842.7,89.81 2453.16,163.72 2564,307.54 C2601.26,355.89 2554.0671,425.0125 2526.4671,458.6325" fill="none" id="entry-to-biz" style="stroke:#000000;stroke-width:1;"/><polygon fill="#000000" points="2522.66,463.27,2531.4623,458.8519,2525.8326,459.4054,2525.279,453.7757,2522.66,463.27" style="stroke:#000000;stroke-width:1;"/><text fill="#000000" font-family="Verdana" font-size="13" lengthAdjust="spacing" textLength="234.457" x="2529.98" y="274.6098">business_management(folder_root)</text></g><!--link main to yaml--><g class="link" data-entity-1="main" data-entity-2="yaml" data-source-line="38" data-uid="lnk27" id="link_main_yaml"><path d="M1304.88,218.27 C1343.27,224.06 1388.71,236.01 1423,260.54 C1463.16,289.26 1484.2438,339.9875 1493.8038,368.6875" fill="none" id="main-to-yaml" style="stroke:#000000;stroke-width:1;"/><polygon fill="#000000" points="1495.7,374.38,1496.6507,364.5771,1494.1199,369.6363,1489.0607,367.1054,1495.7,374.38" style="stroke:#000000;stroke-width:1;"/><text fill="#000000" font-family="Verdana" font-size="13" lengthAdjust="spacing" textLength="104.4634" x="1441.69" y="274.6098">yaml_creation()</text></g><!--link main to create_dir--><g class="link" data-entity-1="main" data-entity-2="create_dir" data-source-line="39" data-uid="lnk28" id="link_main_create_dir"><path d="M1150.94,217.74 C1034.51,226.65 822.38,250.45 776,307.54 C765.63,320.31 766.98,330.8 776,344.55 C794.34,372.52 825.63,347.3 845,374.55 C863.69,400.86 861.6703,434.704 857.8203,457.474" fill="none" id="main-to-create_dir" style="stroke:#000000;stroke-width:1;"/><polygon fill="#000000" points="856.82,463.39,862.2645,455.1828,857.6536,458.46,854.3764,453.8491,856.82,463.39" style="stroke:#000000;stroke-width:1;"/><text fill="#000000" font-family="Verdana" font-size="13" lengthAdjust="spacing" textLength="210.6406" x="777" y="331.6198">create_directory_if_not_exists()</text></g><!--link main to gitignore--><g class="link" data-entity-1="main" data-entity-2="gitignore" data-source-line="40" data-uid="lnk29" id="link_main_gitignore"><path d="M1305.16,216.15 C1392.13,220.98 1526.89,232.79 1569,260.54 C1585.61,271.49 1594.045,286.5859 1599.945,301.5959" fill="none" id="main-to-gitignore" style="stroke:#000000;stroke-width:1;"/><polygon fill="#000000" points="1602.14,307.18,1602.5703,297.3405,1600.3109,302.5266,1595.1248,300.2671,1602.14,307.18" style="stroke:#000000;stroke-width:1;"/><text fill="#000000" font-family="Verdana" font-size="13" lengthAdjust="spacing" textLength="123.2207" x="1586.06" y="274.6098">add_to_gitignore()</text></g><!--link main to credit--><g class="link" data-entity-1="main" data-entity-2="credit" data-source-line="41" data-uid="lnk30" id="link_main_credit"><path d="M1228.8,230.96 C1230.28,245 1234.29,264.3 1245,277.54 C1255.35,290.33 1264.6458,297.3726 1279.3458,304.5326" fill="none" id="main-to-credit" style="stroke:#000000;stroke-width:1;"/><polygon fill="#000000" points="1284.74,307.16,1278.4003,299.6229,1280.2449,304.9705,1274.8972,306.8151,1284.74,307.16" style="stroke:#000000;stroke-width:1;"/><text fill="#000000" font-family="Verdana" font-size="13" lengthAdjust="spacing" textLength="172.2056" x="1246" y="274.6098">credit_closed_by_month()</text></g><!--link main to msg--><g class="link" data-entity-1="main" data-entity-2="msg" data-source-line="42" data-uid="lnk31" id="link_main_msg"><path d="M1221.54,230.64 C1211.15,259.99 1191.17,320.97 1184,374.55 C1181.82,390.86 1173.93,398.56 1184,411.57 C1192.71,422.82 1206.29,408.32 1215,419.57 C1243.58,456.47 1244.57,488.47 1215,524.58 C1177.79,570.03 1014.346,587.3 921.056,593.69" fill="none" id="main-to-msg" style="stroke:#000000;stroke-width:1;"/><polygon fill="#000000" points="915.07,594.1,924.3223,597.4756,920.0583,593.7583,923.7756,589.4943,915.07,594.1" style="stroke:#000000;stroke-width:1;"/><text fill="#000000" font-family="Verdana" font-size="13" lengthAdjust="spacing" textLength="108.2212" x="1185" y="398.6298">message_print()</text></g><!--link main to chrome--><g class="link" data-entity-1="main" data-entity-2="chrome" data-source-line="43" data-uid="lnk32" id="link_main_chrome"><path d="M1304.74,217.84 C1562.08,234.12 2379.38,287.35 2398,307.54 C2443.04,356.37 2370.0722,425.8056 2328.4322,459.3556" fill="none" id="main-to-chrome" style="stroke:#000000;stroke-width:1;"/><polygon fill="#000000" points="2323.76,463.12,2333.2779,460.5881,2327.6535,459.983,2328.2586,454.3586,2323.76,463.12" style="stroke:#000000;stroke-width:1;"/><text fill="#000000" font-family="Verdana" font-size="13" lengthAdjust="spacing" textLength="142.7271" x="2412.61" y="331.6198">chrome_driver_load()</text></g><!--link main to site--><g class="link" data-entity-1="main" data-entity-2="site" data-source-line="44" data-uid="lnk33" id="link_main_site"><path d="M1151,214.24 C1000.67,217.33 679.49,227.73 642,260.54 C628.98,271.94 626.4054,286.3302 626.5154,301.1402" fill="none" id="main-to-site" style="stroke:#000000;stroke-width:1;"/><polygon fill="#000000" points="626.56,307.14,630.493,298.1105,626.5229,302.1401,622.4933,298.17,626.56,307.14" style="stroke:#000000;stroke-width:1;"/><text fill="#000000" font-family="Verdana" font-size="13" lengthAdjust="spacing" textLength="105.1743" x="643" y="274.6098">site_operation()</text></g><!--link main to process--><g class="link" data-entity-1="main" data-entity-2="process" data-source-line="45" data-uid="lnk34" id="link_main_process"><path d="M1150.88,212.58 C964.13,212.22 499.06,215.85 446,260.54 C412.63,288.65 411.0029,339.3519 412.8229,368.2519" fill="none" id="main-to-process" style="stroke:#000000;stroke-width:1;"/><polygon fill="#000000" points="413.2,374.24,416.6264,365.0064,412.8857,369.2499,408.6422,365.5092,413.2,374.24" style="stroke:#000000;stroke-width:1;"/><text fill="#000000" font-family="Verdana" font-size="13" lengthAdjust="spacing" textLength="175.3413" x="447" y="274.6098">processing_csv_post_cut()</text></g><!--link main to fechas--><g class="link" data-entity-1="main" data-entity-2="fechas" data-source-line="46" data-uid="lnk35" id="link_main_fechas"><path d="M1151.26,224.07 C1109.07,231.87 1062.76,243.93 1050,260.54 C1038.68,275.28 1047.5432,289.5128 1061.3932,302.8828" fill="none" id="main-to-fechas" style="stroke:#000000;stroke-width:1;"/><polygon fill="#000000" points="1065.71,307.05,1062.0129,297.9214,1062.1127,303.5774,1056.4567,303.6771,1065.71,307.05" style="stroke:#000000;stroke-width:1;"/><text fill="#000000" font-family="Verdana" font-size="13" lengthAdjust="spacing" textLength="146.9355" x="1051" y="274.6098">fechas_corte_tarjeta()</text></g><!--link site to msg--><g class="link" data-entity-1="site" data-entity-2="msg" data-source-line="49" data-uid="lnk36" id="link_site_msg"><path d="M618.83,345.01 C601.13,382.52 567.39,470.16 608,524.58 C629.92,553.97 719.7254,574.6843 784.8254,586.4343" fill="none" id="site-to-msg" style="stroke:#000000;stroke-width:1;"/><polygon fill="#000000" points="790.73,587.5,782.5836,581.965,785.8095,586.6119,781.1626,589.8378,790.73,587.5" style="stroke:#000000;stroke-width:1;"/><text fill="#000000" font-family="Verdana" font-size="13" lengthAdjust="spacing" textLength="108.2212" x="609" y="487.6498">message_print()</text></g><!--link site to create_dir--><g class="link" data-entity-1="site" data-entity-2="create_dir" data-source-line="50" data-uid="lnk37" id="link_site_create_dir"><path d="M622.09,344.72 C616.96,363.76 612.65,393.71 629,411.57 C641.07,424.74 691.7,415.12 709,419.57 C748.23,429.66 785.2134,446.1567 813.7534,460.4267" fill="none" id="site-to-create_dir" style="stroke:#000000;stroke-width:1;"/><polygon fill="#000000" points="819.12,463.11,812.859,455.5074,814.6479,460.8739,809.2813,462.6628,819.12,463.11" style="stroke:#000000;stroke-width:1;"/><text fill="#000000" font-family="Verdana" font-size="13" lengthAdjust="spacing" textLength="210.6406" x="630" y="398.6298">create_directory_if_not_exists()</text></g><!--link process to msg--><g class="link" data-entity-1="process" data-entity-2="msg" data-source-line="53" data-uid="lnk38" id="link_process_msg"><path d="M412.38,411.67 C409.29,439.73 407.89,494.49 438,524.58 C486.57,573.13 681.118,589.3102 784.598,594.6602" fill="none" id="process-to-msg" style="stroke:#000000;stroke-width:1;"/><polygon fill="#000000" points="790.59,594.97,781.8085,590.5106,785.5967,594.7118,781.3955,598.5,790.59,594.97" style="stroke:#000000;stroke-width:1;"/><text fill="#000000" font-family="Verdana" font-size="13" lengthAdjust="spacing" textLength="108.2212" x="439" y="487.6498">message_print()</text></g><!--link credit to msg--><g class="link" data-entity-1="credit" data-entity-2="msg" data-source-line="56" data-uid="lnk39" id="link_credit_msg"><path d="M1329.57,344.94 C1325.01,353.78 1319.56,364.65 1315,374.55 C1279.72,451.23 1309.25,498.87 1242,549.88 C1191.99,587.8 1018.0093,595.6487 921.3793,597.1187" fill="none" id="credit-to-msg" style="stroke:#000000;stroke-width:1;"/><polygon fill="#000000" points="915.38,597.21,924.4398,601.0726,920.3794,597.1339,924.3181,593.0736,915.38,597.21" style="stroke:#000000;stroke-width:1;"/><text fill="#000000" font-family="Verdana" font-size="13" lengthAdjust="spacing" textLength="108.2212" x="1300.31" y="487.6498">message_print()</text></g><!--link credit to pcc--><g class="link" data-entity-1="credit" data-entity-2="pcc" data-source-line="57" data-uid="lnk40" id="link_credit_pcc"><path d="M1435.84,335.1 C1476.72,341.61 1523.62,353.36 1562,374.55 C1582.09,385.65 1577.1,402.08 1598,411.57 C1628.6,425.46 1716.11,412.67 1749,419.57 C1793.55,428.92 1836.5779,446.0691 1868.9979,460.6491" fill="none" id="credit-to-pcc" style="stroke:#000000;stroke-width:1;"/><polygon fill="#000000" points="1874.47,463.11,1867.9025,455.7705,1869.9099,461.0592,1864.6212,463.0667,1874.47,463.11" style="stroke:#000000;stroke-width:1;"/><text fill="#000000" font-family="Verdana" font-size="13" lengthAdjust="spacing" textLength="221.4951" x="1599" y="398.6298">process_closed_credit_accounts()</text></g><!--link credit to export--><g class="link" data-entity-1="credit" data-entity-2="export" data-source-line="58" data-uid="lnk41" id="link_credit_export"><path d="M1435.62,336.39 C1577.05,350.08 1823.91,374.03 1825,374.55 C1845.68,384.5 1840.05,402.2 1861,411.57 C1899.78,428.91 2012.31,404.43 2052,419.57 C2075.76,428.63 2093.4561,444.0419 2107.3661,458.7419" fill="none" id="credit-to-export" style="stroke:#000000;stroke-width:1;"/><polygon fill="#000000" points="2111.49,463.1,2108.2095,453.8135,2108.0534,459.4682,2102.3987,459.3121,2111.49,463.1" style="stroke:#000000;stroke-width:1;"/><text fill="#000000" font-family="Verdana" font-size="13" lengthAdjust="spacing" textLength="99.6138" x="1862" y="398.6298">export_pickle()</text></g><!--link credit to open_f--><g class="link" data-entity-1="credit" data-entity-2="open_f" data-source-line="59" data-uid="lnk42" id="link_credit_open_f"><path d="M1330.93,345.05 C1323.76,364.08 1316.72,393.76 1333,411.57 C1346.4,426.23 1403.53,412.28 1422,419.57 C1446.26,429.13 1464.9142,444.4212 1479.7642,458.9012" fill="none" id="credit-to-open_f" style="stroke:#000000;stroke-width:1;"/><polygon fill="#000000" points="1484.06,463.09,1480.4088,453.9429,1480.4801,459.5993,1474.8237,459.6707,1484.06,463.09" style="stroke:#000000;stroke-width:1;"/><text fill="#000000" font-family="Verdana" font-size="13" lengthAdjust="spacing" textLength="89.4512" x="1334" y="398.6298">open_folder()</text></g><!--link fechas to parse_date--><g class="link" data-entity-1="fechas" data-entity-2="parse_date" data-source-line="62" data-uid="lnk43" id="link_fechas_parse_date"><path d="M1008.49,344.95 C994.09,351.83 980.85,361.36 972,374.55 C962.83,388.21 963.35,397.57 972,411.57 C976.18,418.33 980.95,415.89 988,419.57 C1015.52,433.93 1041.2179,447.929 1063.7579,460.379" fill="none" id="fechas-to-parse_date" style="stroke:#000000;stroke-width:1;"/><polygon fill="#000000" points="1069.01,463.28,1063.0659,455.4271,1064.6333,460.8625,1059.1979,462.4299,1069.01,463.28" style="stroke:#000000;stroke-width:1;"/><text fill="#000000" font-family="Verdana" font-size="13" lengthAdjust="spacing" textLength="171.6914" x="973" y="398.6298">parse_fecha_ddmmyyyy()</text></g><!--link upload to msg--><g class="link" data-entity-1="upload" data-entity-2="msg" data-source-line="65" data-uid="lnk44" id="link_upload_msg"><path d="M95.39,500.87 C109.47,516.84 132.48,539.34 158,549.88 C271.54,596.73 636.4601,599.1804 784.8301,598.1804" fill="none" id="upload-to-msg" style="stroke:#000000;stroke-width:1;"/><polygon fill="#000000" points="790.83,598.14,781.8032,594.2007,785.8301,598.1737,781.8572,602.2006,790.83,598.14" style="stroke:#000000;stroke-width:1;"/><text fill="#000000" font-family="Verdana" font-size="13" lengthAdjust="spacing" textLength="108.2212" x="159" y="546.9498">message_print()</text></g><!--link conceptos to msg--><g class="link" data-entity-1="conceptos" data-entity-2="msg" data-source-line="68" data-uid="lnk45" id="link_conceptos_msg"><path d="M259.68,500.85 C264.83,516.57 274.75,538.7 292,549.88 C333.07,576.48 647.1537,590.318 784.6137,595.178" fill="none" id="conceptos-to-msg" style="stroke:#000000;stroke-width:1;"/><polygon fill="#000000" points="790.61,595.39,781.757,591.0745,785.6131,595.2133,781.4743,599.0695,790.61,595.39" style="stroke:#000000;stroke-width:1;"/><text fill="#000000" font-family="Verdana" font-size="13" lengthAdjust="spacing" textLength="108.2212" x="293" y="546.9498">message_print()</text></g><!--link open_f to msg--><g class="link" data-entity-1="open_f" data-entity-2="msg" data-source-line="71" data-uid="lnk46" id="link_open_f_msg"><path d="M1471.45,500.91 C1456.95,509.05 1438.99,518.27 1422,524.58 C1375.38,541.91 1362.05,541.68 1313,549.88 C1171.65,573.48 1009.7554,586.8423 921.0654,593.0323" fill="none" id="open_f-to-msg" style="stroke:#000000;stroke-width:1;"/><polygon fill="#000000" points="915.08,593.45,924.3367,596.8137,920.0679,593.1019,923.7797,588.8331,915.08,593.45" style="stroke:#000000;stroke-width:1;"/><text fill="#000000" font-family="Verdana" font-size="13" lengthAdjust="spacing" textLength="108.2212" x="1398.47" y="546.9498">message_print()</text></g><!--link create_dir to msg--><g class="link" data-entity-1="create_dir" data-entity-2="msg" data-source-line="72" data-uid="lnk47" id="link_create_dir_msg"><path d="M853,500.94 C853,522.41 853,552.23 853,573.65" fill="none" id="create_dir-to-msg" style="stroke:#000000;stroke-width:1;"/><polygon fill="#000000" points="853,579.65,857,570.65,853,574.65,849,570.65,853,579.65" style="stroke:#000000;stroke-width:1;"/><text fill="#000000" font-family="Verdana" font-size="13" lengthAdjust="spacing" textLength="108.2212" x="854" y="546.9498">message_print()</text></g><!--link yaml to msg--><g class="link" data-entity-1="yaml" data-entity-2="msg" data-source-line="73" data-uid="lnk48" id="link_yaml_msg"><path d="M1561.37,410.53 C1564.66,413.12 1567.59,416.11 1570,419.57 C1596.67,457.87 1595.18,485.29 1570,524.58 C1555.48,547.24 1541.06,543.18 1515,549.88 C1402.63,578.73 1063.4174,591.4037 921.2074,595.5837" fill="none" id="yaml-to-msg" style="stroke:#000000;stroke-width:1;"/><polygon fill="#000000" points="915.21,595.76,924.3236,599.4938,920.2078,595.6131,924.0886,591.4973,915.21,595.76" style="stroke:#000000;stroke-width:1;"/><text fill="#000000" font-family="Verdana" font-size="13" lengthAdjust="spacing" textLength="108.2212" x="1590.45" y="487.6498">message_print()</text></g><!--link init to chrome--><g class="link" data-entity-1="init" data-entity-2="chrome" data-source-line="76" data-uid="lnk49" id="link_init_chrome"><path d="M1686.32,230.83 C1696.27,239.46 1708.09,250.19 1718,260.54 C1751.42,295.44 1745.18,320.35 1787,344.55 C1856.82,384.96 1886.6,360.33 1966,374.55 C2071.11,393.38 2102.62,380.51 2202,419.57 C2229.67,430.44 2253.2619,445.7514 2272.3219,459.7314" fill="none" id="init-to-chrome" style="stroke:#000000;stroke-width:1;"/><polygon fill="#000000" points="2277.16,463.28,2272.2686,454.7317,2273.1282,460.3228,2267.5371,461.1825,2277.16,463.28" style="stroke:#000000;stroke-width:1;"/><text fill="#000000" font-family="Verdana" font-size="13" lengthAdjust="spacing" textLength="138.6709" x="1788" y="331.6198">imports load_chrome</text></g><!--link init to pcc--><g class="link" data-entity-1="init" data-entity-2="pcc" data-source-line="77" data-uid="lnk50" id="link_init_pcc"><path d="M1733.42,222.05 C1792.94,233.07 1878.31,256.95 1935,307.54 C1971.4,340.02 1986.62,365.71 1970,411.57 C1962.66,431.81 1950.9056,446.1524 1937.5256,458.9524" fill="none" id="init-to-pcc" style="stroke:#000000;stroke-width:1;"/><polygon fill="#000000" points="1933.19,463.1,1942.4584,459.7689,1936.803,459.6436,1936.9283,453.9882,1933.19,463.1" style="stroke:#000000;stroke-width:1;"/><text fill="#000000" font-family="Verdana" font-size="13" lengthAdjust="spacing" textLength="263.9038" x="1968.23" y="331.6198">imports process_closed_credit_accounts</text></g><!--link init to export--><g class="link" data-entity-1="init" data-entity-2="export" data-source-line="78" data-uid="lnk51" id="link_init_export"><path d="M1733.32,213.7 C1871.32,216.64 2175.67,231.77 2240,307.54 C2250.65,320.08 2245.57,329.08 2240,344.55 C2221.96,394.63 2181.2381,435.445 2153.7781,459.195" fill="none" id="init-to-export" style="stroke:#000000;stroke-width:1;"/><polygon fill="#000000" points="2149.24,463.12,2158.6638,460.2579,2153.0218,459.8492,2153.4305,454.2071,2149.24,463.12" style="stroke:#000000;stroke-width:1;"/><text fill="#000000" font-family="Verdana" font-size="13" lengthAdjust="spacing" textLength="142.0225" x="2247.22" y="331.6198">imports export_pickle</text></g><!--link upload to GMN52--><g class="link" data-entity-1="upload" data-entity-2="GMN52" data-source-line="80" data-uid="lnk54" id="link_upload_GMN52"><path d="M90.86,463.38 C104.73,439.34 132.5,398.72 169.5,382.06 C292.44,326.69 2468.07,341.02 2596.5,382.06 C2644.98,397.56 2691.03,436.58 2716.5,461.04" fill="none" id="upload-GMN52" style="stroke:#000000;stroke-width:1;stroke-dasharray:7,7;"/></g><!--link conceptos to GMN55--><g class="link" data-entity-1="conceptos" data-entity-2="GMN55" data-source-line="81" data-uid="lnk57" id="link_conceptos_GMN55"><path d="M271.72,463.19 C294.58,438.95 338.19,398.1 385.5,382.06 C514.66,338.26 2710.73,340.1 2840.5,382.06 C2888.48,397.57 2933.81,436.59 2958.85,461.05" fill="none" id="conceptos-GMN55" style="stroke:#000000;stroke-width:1;stroke-dasharray:7,7;"/></g><!--link open_f to GMN58--><g class="link" data-entity-1="open_f" data-entity-2="GMN58" data-source-line="82" data-uid="lnk60" id="link_open_f_GMN58"><path d="M1512.2,463.33 C1527.81,439.24 1558.64,398.57 1597.5,382.06 C1673.43,349.81 3004,356.68 3082.5,382.06 C3130.48,397.57 3175.81,436.59 3200.85,461.05" fill="none" id="open_f-GMN58" style="stroke:#000000;stroke-width:1;stroke-dasharray:7,7;"/></g><!--SRC=[fLP1RjKm4Dtd5AORVXVb02oG4BImQ049Te0iVzl9DtLiotPAKyGPsBFY69o72t05PcmdF_bDlbJHNJnlnkFttiplexYJhIHECsMgSAsCOvwrXDlMMIDDV1zxBOcNF3BJQ5bLZl5hraXo4crachRCm5SBo2UkFo7VAa8-AgEYObhTITfeksKwV2Oi43p6y65Y2hPuFmI3Yf9Q9psBofeKmYCCEM-v346PXl9mGvqDaV8kfvSOmhYNGa54so05tVQqjIRk4Yg74DGvRPcWWaMM8laR8xNaEnOejnuQYSn_aGMI0mXfuIRedJglXkv3Kwvca2KKycLzJrLDZOrKtgeGmz12WM12prfDqz7mM3p121E2HaiROB8nriiK7ByI7Sm7ILDNL8YsxU4lSv42yBG4QwG1CeNry2J3fOksD39y8GW8DxIsMaYVWlcx-ZwH-_msIc-O9bTMT5g6elMs0q60ZqCzj-ekCRBpjeLclBgHdYB7-V9qF15raAk8npYtdIcKESuHAMyTQ4ATujSwqv5FPbrUWOt8kOc-9-yig5Ewf1JzHMbEmp1cFIO9NclxjKg7vEpiMR8fUKhkctXpEa5XFK0TUdc60Gu0ii3G9bDDlRNn5FiuB4CuqpfKwHAiXAw0KZExm5LZVEygG1rtuJHjz1Da7HhkeBn8f2pFrXGAam2usOJCAYNXiT8zOqnXEF80cY-3AQ3O1Z0hMs4ApfCBsANPtYG1vZSL-bCNwuyQmmzZ7svRwRbSExnj_MOeiQn4gL3qMYym0S1qxLbS6SDvHXuxI9fDv1oJ5mXW9fibDxwaGMcxw9Iw6dSODhUmwNAnoHhFDSY6Tzx31EcUTAQ3jvnM6NISpeKjkLvm3pbQyxNKO2XITuQZgK9LI3agos2aTL3Q1KSlVfNs5RbXNh4j_7gFgooPkqeBRZQCgaKX0qbabjqyeh911iXne-opHfCCYJEpL1MC1FnRePfT9BOkEWBwpyzVVt__86_UVY0ldbzUdh_yP2uAVqJ86XQfW8KQYnG7LVQw_6UXqRqFhF8F]--></g></svg>